<?xml version="1.0" encoding="utf-8"?>
<!-- Generator: Adobe Illustrator 25.4.1, SVG Export Plug-In . SVG Version: 6.00 Build 0)  -->
<svg version="1.1" id="Layer_1" xmlns="http://www.w3.org/2000/svg" xmlns:xlink="http://www.w3.org/1999/xlink" x="0px" y="0px"
	 viewBox="0 0 400 400" style="enable-background:new 0 0 400 400;" xml:space="preserve">
<style type="text/css">
	.st0{fill:#231F20;}
	.st1{fill:none;}
	.st2{font-family:'MyriadPro-Regular';}
	.st3{font-size:12px;}
</style>
<g>
	<g>
		<path class="st0" d="M134.33,147.48c-8.67-0.3-17.28,1.4-25.22,4.89c-3.97,1.74-7.55,3.88-10.06,7.51
			c-2.2,3.19-3.62,7.07-4.63,10.79c-4.04,14.89-0.6,31.32,7.53,44.24c2.02,3.21,4.33,6.39,7.31,8.78c3.44,2.77,7.31,3.97,11.68,4.29
			c4.59,0.34,9.22,0.36,13.82,0.52c4.58,0.16,9.19,0.49,13.77,0.45c2.14-0.02,4.29-0.33,6.2-1.35c1.78-0.96,3.13-2.55,4.22-4.21
			c2.23-3.39,4.19-7.12,5.69-10.88c3.3-8.27,2.08-17.23-0.93-25.4c-3.16-8.56-7.72-16.62-11.84-24.74
			c-2.08-4.09-4.06-8.24-6.25-12.28c-1.78-3.28-4.68-6.34-8.74-5.94c-1.97,0.19-3.54,1.12-4.67,2.73c-0.78,1.11-0.2,2.78,0.9,3.42
			c1.25,0.73,2.64,0.21,3.42-0.9c0.11-0.16,0.3-0.23,0.71-0.29c0.21-0.03,0.84,0.02,1.15,0.14c1.28,0.5,2.09,1.89,2.72,3.02
			c2.02,3.61,3.78,7.38,5.65,11.07c3.73,7.36,7.8,14.64,11,22.25c2.88,6.86,5.08,14.58,3.23,22c-0.91,3.63-2.68,6.91-4.51,10.14
			c-1.54,2.71-2.92,5.73-6.36,6.14c-1.89,0.23-3.85,0.03-5.75-0.04c-2.14-0.07-4.27-0.15-6.41-0.22c-4.19-0.15-8.38-0.29-12.57-0.44
			c-3.67-0.13-7.57-0.04-10.87-1.9c-2.76-1.56-4.92-4.01-6.72-6.57c-7.66-10.89-11.73-24.98-9.53-38.26
			c1.04-6.3,3.18-14.09,9.01-17.57c6.3-3.77,13.95-5.79,21.24-6.3c1.93-0.13,3.87-0.16,5.81-0.09
			C137.55,152.59,137.55,147.59,134.33,147.48L134.33,147.48z"/>
	</g>
</g>
<g>
	<g>
		<path class="st0" d="M125.97,147.65c-1.68-2.34-3.07-4.83-4.19-7.48c0.42,1,0.84,1.99,1.26,2.99c-1.31-3.2-2.13-6.51-2.6-9.93
			c0.15,1.11,0.3,2.22,0.45,3.32c-1.17-8.99-1.05-18.45,0.12-27.44c-0.15,1.11-0.3,2.22-0.45,3.32c0.77-5.65,2.11-11.21,4.31-16.48
			c-0.42,1-0.84,1.99-1.26,2.99c0.92-2.14,1.99-4.19,3.4-6.05c-0.65,0.84-1.3,1.69-1.95,2.53c0.79-1,1.66-1.9,2.65-2.7
			c-0.84,0.65-1.69,1.3-2.53,1.95c0.85-0.64,1.74-1.17,2.7-1.61c-1,0.42-1.99,0.84-2.99,1.26c1.42-0.6,2.89-0.96,4.41-1.19
			c-1.11,0.15-2.22,0.3-3.32,0.45c3.09-0.4,6.22-0.31,9.33-0.32c3.49-0.01,6.97-0.01,10.46-0.02c6.97-0.01,13.95-0.02,20.92-0.04
			c13.78-0.02,27.56-0.05,41.34-0.07c3.82-0.01,7.64-0.01,11.46-0.02c3.83-0.01,7.77-0.27,11.58,0.15c-1.11-0.15-2.22-0.3-3.32-0.45
			c1.12,0.15,2.18,0.41,3.24,0.83c-1-0.42-1.99-0.84-2.99-1.26c1.18,0.5,2.26,1.15,3.28,1.92c-0.84-0.65-1.69-1.3-2.53-1.95
			c1.43,1.13,2.67,2.43,3.8,3.85c-0.65-0.84-1.3-1.69-1.95-2.53c2.24,2.9,3.98,6.11,5.41,9.47c-0.42-1-0.84-1.99-1.26-2.99
			c2.86,6.88,4.44,14.21,6.23,21.42c2.01,8.12,4.03,16.25,6.04,24.37c0.74,3,3.1,5.92,5.74,7.47c2.68,1.57,6.63,2.23,9.63,1.26
			c6.58-2.13,10.42-8.57,8.73-15.38c-2.23-9.01-4.47-18.02-6.7-27.03c-2.17-8.77-4.39-17.52-8.63-25.58
			c-0.92-1.75-1.96-3.44-3.14-5.03c-1.62-2.19-3.27-4.45-5.33-6.26c-2.02-1.78-4.22-3.53-6.7-4.61c-1.73-0.75-3.46-1.6-5.32-1.95
			c-1.98-0.37-4.02-0.64-6.04-0.72c-4.57-0.18-9.17-0.01-13.75-0.01c-4.65,0.01-9.3,0.02-13.95,0.02
			c-18.6,0.03-37.19,0.06-55.79,0.1c-4.62,0.01-9.25,0.01-13.87,0.02c-1.98,0.01-3.95,0.06-5.92,0.31c-1.93,0.24-3.9,0.42-5.78,0.94
			c-1.83,0.5-3.63,1.3-5.32,2.12c-0.83,0.41-1.59,0.89-2.32,1.44c-1.45,1.09-2.96,2.16-4.2,3.49c-1.84,1.97-3.52,4.23-4.83,6.6
			c-2.36,4.27-4.1,9.04-5.35,13.76c-2.4,9.08-3.12,18.68-2.99,28.05c0.08,5.32,0.47,10.55,1.28,15.82c0.77,5.02,2.54,9.8,4.8,14.33
			c0.9,1.8,1.95,3.51,3.12,5.14c1.95,2.71,4.15,4.83,7.47,5.74c2.99,0.82,6.98,0.45,9.63-1.26c2.67-1.72,5.02-4.28,5.74-7.47
			C127.93,154.18,127.9,150.35,125.97,147.65L125.97,147.65z"/>
	</g>
</g>
<g>
	<g>
		<path class="st0" d="M267.33,150.35c-8.91-4.26-18.23,0.32-24.72,6.69c-6.16,6.04-11.25,13.88-12.14,22.63
			c-0.43,4.24,0.46,8.58,2.54,12.3c2.11,3.79,5.31,6.78,8.73,9.37c7.21,5.45,15.54,9.8,23.85,13.3c17.09,7.19,37,9.92,54.63,2.91
			c2.14-0.85,4.73-1.67,6.12-3.63c1.37-1.93,1.31-4.54,1.5-6.8c0.41-4.88,0.63-9.76-0.03-14.63c-1.35-9.84-7.39-17.46-13.59-24.84
			c-3.21-3.82-6.52-7.56-9.94-11.2c-3.16-3.37-6.31-6.86-10.12-9.52c-3.69-2.58-8.21-4.01-12.66-2.74c-2.2,0.63-4.2,1.79-6.32,2.64
			c-2.25,0.9-4.59,1.58-6.97,2.05c-2.24,0.44-4.51,0.63-6.79,0.65c-3.22,0.03-3.22,5.03,0,5c4.46-0.04,8.94-0.74,13.17-2.17
			c2.12-0.72,4.13-1.68,6.18-2.59c1.7-0.75,3.49-1.29,5.37-1.02c3.61,0.53,6.69,3.21,9.21,5.66c3.22,3.11,6.25,6.44,9.25,9.78
			c3.05,3.39,6.02,6.86,8.9,10.4c2.61,3.22,5.09,6.59,6.91,10.33c1.87,3.83,2.66,8.02,2.81,12.25c0.08,2.24,0,4.48-0.14,6.71
			c-0.13,2.05-0.17,4.2-0.52,6.22c-0.14,0.82-0.37,1.11-1.1,1.49c-0.89,0.47-1.84,0.85-2.77,1.22c-2.03,0.8-4.12,1.47-6.23,2.01
			c-4.03,1.04-8.15,1.61-12.31,1.76c-8.48,0.31-16.87-1.09-24.93-3.67c-8.12-2.6-15.79-6.37-23.1-10.73
			c-6.05-3.61-13.34-7.92-15.82-14.95c-2.59-7.32,0.63-15.01,4.91-20.98c4.18-5.83,10.67-12.32,18.29-12.58
			c1.82-0.06,3.64,0.21,5.3,1c1.22,0.58,2.7,0.34,3.42-0.9C268.87,152.68,268.56,150.94,267.33,150.35L267.33,150.35z"/>
	</g>
</g>
<polygon class="st1" points="150.23,210.66 121.13,207.12 124.48,185.81 153.59,189.35 "/>
<text transform="matrix(1 0 0 1 124.3478 194.333)" class="st2 st3">L</text>
<rect x="253.95" y="171.91" class="st1" width="50.78" height="25.01"/>
<text transform="matrix(1 0 0 1 253.9473 180.4253)" class="st2 st3">R</text>
<text transform="matrix(1 0 0 1 293.2383 36.8672)" class="st3 st4">-25%</text>
</svg>
