<?xml version="1.0" encoding="utf-8"?>
<!-- Generator: Adobe Illustrator 25.4.1, SVG Export Plug-In . SVG Version: 6.00 Build 0)  -->
<svg version="1.1" id="Layer_1" xmlns="http://www.w3.org/2000/svg" xmlns:xlink="http://www.w3.org/1999/xlink" x="0px" y="0px"
	 viewBox="0 0 400 400" style="enable-background:new 0 0 400 400;" xml:space="preserve">
<style type="text/css">
	.st0{fill:#231F20;}
	.st1{fill:none;}
	.st2{font-family:'MyriadPro-Regular';}
	.st3{font-size:21px;}
</style>
<g>
	<g>
		<path class="st0" d="M61.52,113.75c-2.08,11.07-3.22,22.32-3.3,33.58c-0.04,5.45,0.14,11.07,1.98,16.26
			c1.7,4.8,4.57,8.99,7.77,12.91c5.83,7.15,13.28,13.41,22.1,16.43c2.23,0.76,4.52,1.25,6.85,1.52c2.31,0.27,4.88,0.47,7.01-0.62
			c2.2-1.11,3.15-3.41,3.99-5.57c0.97-2.48,1.86-5,2.69-7.54c6.55-20.14,8.65-41.43,9.51-62.49c0.22-5.3,0.35-10.59,0.46-15.89
			c0.05-2.68,0.1-5.36,0.14-8.04c0.04-2.64,0.07-5.43-1.4-7.73c-1.29-2.02-3.29-3.39-5.36-4.52c-2.26-1.23-4.61-2.3-7-3.25
			c-4.88-1.94-9.98-3.18-15.18-3.84c-4.93-0.63-10.04-0.76-14.96-0.01c-2.34,0.35-4.62,1.14-6.41,2.74c-1.9,1.7-2.66,4.14-2.96,6.59
			c-0.25,2.07-0.08,4.2-0.52,6.25c-0.42,1.97-1.21,3.81-2.11,5.6c-1.85,3.69-4.21,7.34-5.02,11.44c-0.42,2.12-0.41,4.22,0.12,6.32
			c0.78,3.12,5.6,1.8,4.82-1.33c-0.83-3.34,0.62-6.59,2.12-9.54c1.79-3.5,3.91-6.96,4.81-10.82c0.49-2.1,0.51-4.23,0.64-6.37
			c0.1-1.69,0.32-3.62,1.77-4.73c1.35-1.03,3.28-1.27,4.91-1.41c2.35-0.21,4.71-0.27,7.07-0.19c9.11,0.3,18.55,2.74,26.4,7.45
			c1.61,0.97,2.95,2.1,3.22,4.06c0.32,2.34,0.03,4.86-0.02,7.21c-0.09,4.91-0.19,9.82-0.34,14.73c-0.62,19.46-2.07,39.04-7.03,57.93
			c-1.23,4.71-2.68,9.36-4.37,13.92c-0.37,0.99-0.71,2-1.14,2.96c-0.25,0.54-0.57,1.34-1.12,1.66c-0.75,0.43-1.99,0.24-2.8,0.2
			c-0.94-0.05-1.88-0.14-2.8-0.3c-8.17-1.43-15.2-6.33-20.87-12.2c-3.03-3.13-5.84-6.57-8.03-10.36c-2.39-4.13-3.52-8.6-3.81-13.35
			c-0.62-10.15,0.24-20.6,1.71-30.65c0.38-2.57,0.81-5.13,1.29-7.69c0.25-1.33-0.37-2.7-1.75-3.08
			C63.38,111.67,61.77,112.41,61.52,113.75L61.52,113.75z"/>
	</g>
</g>
<g>
	<g>
		<path class="st0" d="M92.29,82.9c-0.18,2.27-0.35,4.53-0.53,6.8c-0.16,2.11-0.21,4.27-0.6,6.35c-0.4,2.1-1.34,4-1.96,6.02
			c-0.66,2.13-0.74,4.36-0.75,6.57c-0.01,1.01,0,2.02-0.08,3.03c-0.08,1.01-0.37,1.97-0.5,2.97c-0.3,2.2,0.56,4.34,2.86,4.96
			c1.05,0.29,2.25,0.13,3.32,0.1c1.24-0.03,2.49-0.06,3.73-0.08c2.32-0.04,4.65-0.08,6.97-0.1c5.31-0.04,10.62-0.03,15.94,0.05
			c3.22,0.05,3.22-4.95,0-5c-8.63-0.13-17.26-0.1-25.89,0.1c-0.28,0.01-2.8-0.09-2.86,0.07c-0.01,0.01,0.87,0.87,0.84,0.88
			c0.01,0-0.01-0.26,0.01-0.32c0.11-0.28,0.15-0.63,0.21-0.92c0.44-2.06,0.44-4.14,0.46-6.23c0.02-1.96,0.19-3.74,0.85-5.59
			c0.64-1.8,1.39-3.53,1.73-5.43c0.83-4.67,0.9-9.54,1.27-14.26c0.1-1.35-1.22-2.5-2.5-2.5C93.35,80.4,92.39,81.55,92.29,82.9
			L92.29,82.9z"/>
	</g>
</g>
<g>
	<g>
		<path class="st0" d="M88.47,114.73c-1.75,0.54-3.52,0.21-5.29-0.1c-1.99-0.35-3.97-0.71-5.95-1.07
			c-4.05-0.74-8.08-1.52-12.12-2.32c-1.32-0.26-2.7,0.38-3.08,1.75c-0.34,1.23,0.42,2.81,1.75,3.08c4.35,0.87,8.71,1.7,13.07,2.5
			c2.12,0.39,4.23,0.79,6.36,1.13c2.22,0.35,4.41,0.55,6.59-0.13C92.87,118.61,91.56,113.78,88.47,114.73L88.47,114.73z"/>
	</g>
</g>
<g>
	<g>
		<path class="st0" d="M99.82,78.54c-2.79-8.86-0.15-19.24,6.95-25.37c2.06-1.77,4.4-1.56,6.95-1.72c2.65-0.16,5.21-0.87,7.47-2.29
			c2.17-1.36,4.05-3.24,5.32-5.48c0.53-0.93,0.92-1.93,1.4-2.87c0.36-0.7,0.83-1.69,1.47-1.92c0.85-0.3,2.6,0.46,3.64,0.52
			c1.44,0.08,2.87-0.3,4.05-1.15c2.27-1.64,3.35-4.36,4.07-6.97c0.86-3.11-3.96-4.43-4.82-1.33c-0.39,1.39-1.1,4.07-2.52,4.42
			c-1.09,0.27-2.5-0.4-3.61-0.49c-1.34-0.11-2.72,0.23-3.83,1c-2.03,1.42-2.82,3.68-3.91,5.79c-1.06,2.06-2.68,3.66-4.74,4.71
			c-2.23,1.14-4.55,1.02-6.97,1.18c-3.07,0.21-5.51,1.26-7.79,3.32c-3.8,3.43-6.51,8.06-7.98,12.95C93.3,68.35,93.27,74.38,95,79.87
			C95.96,82.93,100.79,81.62,99.82,78.54L99.82,78.54z"/>
	</g>
</g>
<rect x="80.23" y="148.65" class="st1" width="29.39" height="27.19"/>
<text transform="matrix(1 0 0 1 80.2337 163.5562)" class="st2 st3">L</text>
<text transform="matrix(1 0 0 1 293.2383 36.8672)" class="st3 st4">-50%</text>
</svg>
