<?xml version="1.0" encoding="utf-8"?>
<!-- Generator: Adobe Illustrator 25.4.1, SVG Export Plug-In . SVG Version: 6.00 Build 0)  -->
<svg version="1.1" id="Layer_1" xmlns="http://www.w3.org/2000/svg" xmlns:xlink="http://www.w3.org/1999/xlink" x="0px" y="0px"
	 viewBox="0 0 400 400" style="enable-background:new 0 0 400 400;" xml:space="preserve">
<style type="text/css">
	.st0{fill:#FFFFFF;stroke:#231F20;stroke-miterlimit:10;}
	.st1{fill:#231F20;}
	.st2{fill:none;}
	.st3{font-family:'MyriadPro-Regular';}
	.st4{font-size:8px;}
</style>
<rect x="27.16" y="51.17" class="st0" width="356.58" height="107.46"/>
<g>
	<g>
		<path class="st1" d="M41.98,69.66c0,1.66-0.01,3.32-0.01,4.99c0,0.81,0,1.62-0.01,2.43c0,0.89-0.03,1.8,0.32,2.63
			c0.78,1.86,2.81,2.37,4.59,2.85c1.6,0.44,3.25,0.7,4.89,0.85c1.88,0.17,3.96,0.22,4.98-1.7c0.45-0.83,0.45-1.82,0.5-2.74
			c0.05-0.82,0.06-1.64,0.05-2.47c-0.03-1.75-0.2-3.48-0.45-5.21c-0.24-1.64-0.9-3.28-2.5-4.04c-0.83-0.39-1.62-0.52-2.52-0.65
			c-1.05-0.15-2.11-0.29-3.17-0.42c-1.84-0.22-3.68-0.39-5.53-0.52c-1.31-0.09-2.56,1.21-2.5,2.5c0.06,1.43,1.1,2.4,2.5,2.5
			c1.34,0.09,2.68,0.21,4.02,0.35c0.59,0.06,1.17,0.13,1.76,0.2c0.33,0.04,0.67,0.08,1,0.13c-0.4-0.05,0.02,0,0.09,0.01
			c0.21,0.03,0.42,0.06,0.62,0.09c0.18,0.03,1.46,0.1,1.54,0.28c0.02,0.05-0.51-0.39-0.09-0.03c-0.06-0.05-0.38-0.36-0.08-0.04
			c-0.01-0.01-0.3-0.36-0.14-0.13c0.15,0.21-0.11-0.43-0.02,0c0.05,0.24,0.11,0.48,0.15,0.73c0.03,0.16,0.05,0.33,0.07,0.49
			c-0.01-0.05-0.04-0.35-0.01-0.05c0.08,0.69,0.15,1.39,0.2,2.09c0.08,1.27,0.09,2.55,0.04,3.82c-0.01,0.29-0.03,0.57-0.05,0.86
			c-0.01,0.1,0.01,0.38-0.04,0.49c0.09-0.23,0.04-0.4,0.19-0.61c0.16-0.13,0.32-0.26,0.47-0.39c0.19-0.29,0.45-0.44,0.78-0.44
			c-0.02,0.02-0.47-0.01-0.42-0.01c-0.32-0.01-0.64-0.03-0.95-0.05c-0.32-0.02-0.64-0.05-0.95-0.09c-0.16-0.02-0.32-0.03-0.47-0.06
			c0.05,0.01,0.36,0.06,0.07,0.01c-0.67-0.13-1.33-0.23-1.99-0.39c-0.54-0.13-1.08-0.28-1.61-0.45c-0.3-0.1-0.6-0.21-0.91-0.31
			c-0.14-0.05-0.49-0.23,0.04,0.04c-0.5-0.25,0.32,0.3,0.44,0.58c0.02,0.05,0.16,0.39,0.1,0.44c0.02-0.01-0.01-0.62-0.01-0.62
			c0-0.34,0-0.68,0-1.02c0-0.77,0-1.53,0.01-2.3c0-1.53,0.01-3.07,0.01-4.6c0-1.31-1.15-2.56-2.5-2.5
			C43.12,67.22,41.99,68.26,41.98,69.66L41.98,69.66z"/>
	</g>
</g>
<g>
	<g>
		<path class="st1" d="M87.38,70.99c0.17,1.63,0.34,3.27,0.51,4.9c0.17,1.63,0.15,3.42,0.79,4.94c0.8,1.88,2.66,2.57,4.57,2.63
			c1.6,0.05,3.2,0,4.8-0.08c1.63-0.08,3.39-0.07,4.98-0.44c0.93-0.22,1.84-0.8,2.33-1.64c0.61-1.04,0.56-2.2,0.25-3.32
			c-0.4-1.47-0.89-2.92-1.38-4.35c-0.24-0.72-0.5-1.44-0.76-2.16c-0.29-0.81-0.55-1.71-1.04-2.42c-1.29-1.87-3.32-2.22-5.46-2.2
			c-1.94,0.02-3.9,0.28-5.79,0.72c-1.28,0.29-2.15,1.83-1.75,3.08c0.43,1.33,1.71,2.06,3.08,1.75c0.59-0.14,1.18-0.25,1.78-0.35
			c0.51-0.08,0.22-0.03,0.1-0.02c0.17-0.02,0.34-0.04,0.51-0.06c0.34-0.03,0.69-0.06,1.03-0.08c0.6-0.03,1.21-0.05,1.81-0.03
			c0.13,0,0.27,0.01,0.4,0.02c0.06,0,0.39,0.05,0.07,0c-0.35-0.05,0.09,0.05,0.16,0.05c0.14,0.04,0.13,0.03-0.02-0.03
			c-0.17-0.09-0.15-0.07,0.06,0.04c-0.02-0.02-0.33-0.28-0.12-0.08c0.23,0.21-0.11-0.32-0.03-0.01c0.02,0.08,0.1,0.2,0.14,0.27
			c-0.22-0.43-0.06-0.14-0.02-0.02c0.21,0.64,0.46,1.27,0.69,1.91c0.41,1.16,0.79,2.32,1.16,3.49c0.19,0.61,0.38,1.21,0.55,1.82
			c0.03,0.1,0.05,0.21,0.08,0.3c0.01,0.03,0.02,0.07,0.02,0.1c-0.1-0.28-0.03-0.54,0.2-0.78c0.17-0.37,0.18-0.54,0.49-0.73
			c0.45-0.27,0.26-0.12,0.04-0.07c-0.35,0.09,0.57-0.04,0.11-0.02c-0.13,0.01-0.26,0.02-0.39,0.04c-0.31,0.03-0.61,0.05-0.92,0.08
			c-0.7,0.05-1.4,0.1-2.1,0.14c-1.27,0.06-2.54,0.1-3.81,0.1c-0.35,0-0.7,0-1.05-0.01c-0.1,0-0.8-0.01-0.44,0
			c0.34,0.01,0-0.01-0.05-0.01c-0.34,0-0.1-0.02,0.06,0.07c-0.17-0.09-0.24-0.23,0.05,0.07c0.06,0.06,0.28,0.34,0.23,0.42
			c0-0.01-0.09-0.34-0.11-0.39c-0.15-0.45,0,0.23-0.02-0.05c-0.03-0.34-0.07-0.67-0.1-1.01c-0.08-0.73-0.15-1.46-0.23-2.19
			c-0.15-1.46-0.3-2.93-0.45-4.39c-0.13-1.3-1.05-2.56-2.5-2.5C88.64,68.54,87.24,69.6,87.38,70.99L87.38,70.99z"/>
	</g>
</g>
<g>
	<g>
		<path class="st1" d="M113.17,73.05c-0.58,3.53-0.92,7.15,1.4,10.15c2.28,2.96,6.15,2.84,9.54,2.59c1.83-0.14,3.66-0.4,5.45-0.8
			c0.91-0.2,1.83-0.46,2.51-1.15c0.93-0.93,1.05-2.17,0.86-3.4c-0.27-1.7-0.62-3.4-0.94-5.09c-0.15-0.84-0.31-1.68-0.46-2.51
			c-0.17-0.92-0.27-1.87-0.71-2.71c-1.22-2.31-4.16-1.72-6.28-1.49c-2.08,0.22-4.15,0.53-6.19,0.95c-1.28,0.26-2.14,1.85-1.75,3.08
			c0.44,1.36,1.7,2.03,3.08,1.75c2.66-0.54,4.9-0.85,7.65-0.99c0.08,0,0.32,0.02,0.39-0.02c-0.23-0.19-0.46-0.38-0.69-0.57
			c-0.6-0.71-0.81-0.83-0.64-0.35c0.02,0.27,0.1,0.55,0.15,0.81c0.13,0.69,0.25,1.38,0.38,2.07c0.25,1.38,0.51,2.76,0.76,4.14
			c0.12,0.64,0.2,1.29,0.35,1.92c0.09,0.37-0.03-0.03,0-0.09c0.19-0.42,0.49-1.43,1.12-1.38c-0.22-0.01-0.58,0.15-0.79,0.2
			c-0.62,0.14-1.24,0.26-1.87,0.37c-0.77,0.13-1,0.16-1.81,0.23c-1.31,0.12-2.64,0.17-3.95,0.14c-0.3-0.01-0.6-0.02-0.9-0.04
			c-0.3-0.02-0.03,0,0.03,0.01c-0.13-0.02-0.25-0.05-0.37-0.08c-0.06-0.02-0.56-0.17-0.29-0.07c0.23,0.09-0.09-0.05-0.11-0.06
			c-0.09-0.05-0.18-0.12-0.27-0.17c-0.27-0.14,0.32,0.34-0.08-0.07c-0.07-0.07-0.15-0.17-0.23-0.23c-0.26-0.2,0.16,0.28-0.02,0
			c-0.16-0.24-0.29-0.51-0.45-0.75c-0.15-0.23,0.01,0.04,0.03,0.09c-0.07-0.17-0.13-0.35-0.18-0.52c-0.07-0.24-0.13-0.49-0.18-0.75
			c0.02,0.12,0.02,0.34-0.01-0.2c-0.01-0.19-0.02-0.38-0.02-0.58c0-0.39,0.01-0.77,0.04-1.16c0.06-0.79,0.13-1.1,0.26-1.93
			c0.21-1.29-0.33-2.75-1.75-3.08C115.04,71.03,113.39,71.67,113.17,73.05L113.17,73.05z"/>
	</g>
</g>
<g>
	<g>
		<path class="st1" d="M140.36,68.66c0.11,2.45,0.23,4.9,0.34,7.34c0.11,2.35,0.14,4.83,0.96,7.06c0.91,2.46,2.45,4.22,5.14,4.6
			c2.2,0.31,4.48,0.21,6.68-0.05c2.38-0.29,4.72-0.75,7-1.52c2.08-0.7,5.68-1.57,5.8-4.26c0.05-1.12-0.51-2.27-0.85-3.32
			c-0.4-1.22-0.81-2.44-1.21-3.65c-0.74-2.22-1.38-4.5-2.23-6.68c-0.53-1.36-1.45-2.5-2.92-2.89c-1.28-0.34-2.73-0.29-4.04-0.34
			c-2.84-0.12-5.68-0.15-8.53-0.09c-3.21,0.06-3.22,5.06,0,5c2.17-0.04,4.33-0.04,6.5,0.02c1.08,0.03,2.16,0.07,3.25,0.13
			c0.12,0.01,1.53,0.07,1.53,0.09c0,0.07-0.37-0.17-0.39-0.18c-0.2-0.04-0.03-0.27-0.08-0.01c-0.07,0.32,0.38,1.15,0.49,1.48
			c0.17,0.51,0.34,1.03,0.51,1.54c0.34,1.03,0.68,2.05,1.02,3.08c0.34,1.03,0.68,2.05,1.02,3.08c0.17,0.51,0.34,1.03,0.51,1.54
			c0.08,0.26,0.17,0.51,0.25,0.77c0.04,0.12,0.15,0.76,0.16,0.45c0.11-0.42,0.23-0.84,0.34-1.26c0.46-0.42,0.53-0.54,0.21-0.36
			c-0.17,0.08-0.34,0.16-0.51,0.23c-0.2,0.09-0.4,0.17-0.6,0.25c-0.63,0.25-1.28,0.48-1.92,0.69c-1.3,0.42-2.62,0.76-3.96,1.01
			c-1.18,0.22-2.38,0.35-3.58,0.41c-1.21,0.06-2.63,0.17-3.79-0.06c-0.74-0.14-0.91-0.72-1.16-1.52c-0.37-1.2-0.47-2.42-0.53-3.67
			c-0.16-2.96-0.27-5.93-0.41-8.89c-0.06-1.35-1.1-2.5-2.5-2.5C141.55,66.16,140.3,67.31,140.36,68.66L140.36,68.66z"/>
	</g>
</g>
<g>
	<g>
		<path class="st1" d="M168.86,67.93c1.09,2.01,0.71,4.71,0.85,6.92c0.17,2.76,0.5,5.51,0.96,8.23c0.43,2.56,0.82,6.06,4.18,6.1
			c1.34,0.02,2.52-0.64,3.67-1.24c1.26-0.65,2.51-1.3,3.77-1.94c2.51-1.3,5.02-2.59,7.53-3.89c0.9-0.46,1.81-1.02,2.83-1.09
			c1.16-0.08,2.25,0.01,3.3-0.61c1.24-0.74,1.86-2.24,1.57-3.64c-0.27-1.3-1.12-2.5-1.76-3.66c-0.65-1.17-1.3-2.33-1.95-3.5
			c-0.7-1.25-1.32-2.6-2.23-3.7c-2.06-2.49-5.68-2.01-8.58-2.1c-3.11-0.1-6.22-0.2-9.32-0.3c-3.22-0.1-3.21,4.9,0,5
			c4.42,0.14,8.84,0.22,13.25,0.43c0.8,0.04,0.83,0.12,1.21,0.78c0.54,0.94,1.06,1.89,1.59,2.83c0.54,0.96,1.07,1.92,1.61,2.88
			c0.3,0.54,1.3,1.87,1.23,2.34c0.11-0.42,0.23-0.84,0.34-1.26c0.31-0.63,1.41-0.52,0.47-0.49c-0.31,0.01-0.62-0.01-0.93,0.01
			c-1.13,0.06-2.12,0.35-3.14,0.79c-1.76,0.76-3.44,1.71-5.14,2.59c-1.74,0.9-3.49,1.8-5.23,2.7c-0.84,0.43-1.67,0.86-2.51,1.3
			c-0.41,0.21-0.83,0.47-1.26,0.65c-0.64,0.26-0.29,0.03-0.22,0.06c0.37,0.21,0.74,0.43,1.1,0.64c0.09,0.34,0.11,0.38,0.04,0.11
			c-0.05-0.21-0.1-0.42-0.14-0.63c-0.09-0.45-0.18-0.91-0.26-1.36c-0.15-0.83-0.29-1.67-0.42-2.5c-0.25-1.68-0.42-3.38-0.53-5.07
			c-0.23-3.35,0.09-6.85-1.56-9.9C171.64,62.58,167.32,65.1,168.86,67.93L168.86,67.93z"/>
	</g>
</g>
<g>
	<g>
		<path class="st1" d="M210.01,62.04c0.29,7.32,0.62,14.65,2.03,21.86c0.22,1.11,1.37,1.78,2.41,1.84c4.96,0.27,9.94,0.4,14.91,0.4
			c2.45,0,4.89-0.04,7.33-0.11c1.14-0.03,2.33,0.02,3.33-0.62c1.27-0.82,1.58-2.28,1.34-3.69c-0.8-4.68-2.17-9.34-3.37-13.92
			c-0.61-2.3-1.09-4.74-1.94-6.97c-0.93-2.45-2.8-3.4-5.29-3.67c-5.54-0.6-11.2-0.42-16.72,0.27c-1.34,0.17-2.5,1.03-2.5,2.5
			c0,1.22,1.15,2.67,2.5,2.5c3.39-0.43,6.8-0.64,10.21-0.61c1.79,0.02,3.57,0.09,5.36,0.24c0.43,0.03,1.36-0.04,1.74,0.24
			c0.15,0.11-0.19-0.22-0.05,0.03c0.15,0.28,0.2,0.66,0.29,0.96c0.92,3.25,1.78,6.53,2.6,9.8c0.41,1.64,0.81,3.28,1.21,4.93
			c0.19,0.78,0.37,1.57,0.55,2.35c0.11,0.47,0.22,0.94,0.32,1.41c0.04,0.16,0.07,0.31,0.11,0.47c0.1,0.72,0.18,0.63,0.22-0.28
			c0.3-0.3,0.6-0.6,0.9-0.9c0.58-0.11,0.55-0.13-0.07-0.08c-0.16,0.01-0.33,0.01-0.49,0.02c-0.49,0.01-0.98,0.03-1.47,0.04
			c-0.98,0.02-1.96,0.04-2.93,0.06c-2.04,0.03-4.07,0.03-6.11,0.01c-3.99-0.04-7.99-0.17-11.97-0.39c0.8,0.61,1.61,1.22,2.41,1.84
			c-1.32-6.76-1.59-13.66-1.86-20.53C214.88,58.83,209.88,58.82,210.01,62.04L210.01,62.04z"/>
	</g>
</g>
<g>
	<g>
		<path class="st1" d="M295.23,69.66c-0.09,4-0.29,8.02-0.27,12.03c0.01,1.14,0.29,2.19,1.16,2.98c0.99,0.9,2.31,0.92,3.58,0.98
			c1.98,0.1,3.96,0.14,5.94,0.14c0.88,0,1.78,0.02,2.66-0.06c1.5-0.15,2.69-1.02,3.13-2.5c0.26-0.88,0.12-1.85,0.07-2.74
			c-0.06-1.05-0.12-2.1-0.17-3.14c-0.11-1.99-0.22-3.98-0.33-5.97c-0.11-1.96-0.33-4-1.8-5.46c-1.67-1.65-4.01-1.69-6.17-1.32
			c-2.18,0.38-4.34,0.99-6.49,1.49c-1.27,0.3-2.15,1.83-1.75,3.08c0.43,1.33,1.71,2.06,3.08,1.75c1.59-0.37,3.19-0.74,4.78-1.11
			c0.65-0.15,1.29-0.32,1.95-0.41c-0.43,0.06,0.29,0,0.42-0.01c0.12,0,0.24,0,0.35,0.01c0.57,0.02-0.12-0.1,0.13,0.03
			c0.06,0.03,0.48,0.21,0.22,0.06c-0.03-0.01-0.06-0.02-0.1-0.03c0.21,0.14,0.25,0.16,0.11,0.07c-0.04,0.04-0.16-0.19-0.16-0.19
			c0.01-0.01,0.21,0.35,0.24,0.41c-0.18-0.39,0.05,0.3,0.08,0.43c0.1,0.4-0.03-0.35,0.02,0.07c0.02,0.2,0.04,0.41,0.05,0.61
			c0.1,1.55,0.17,3.1,0.26,4.64c0.09,1.62,0.18,3.25,0.27,4.87c0.02,0.37,0.04,0.73,0.06,1.1c0.01,0.15,0,0.36,0.03,0.52
			c0.04,0.29-0.14,0.19,0.03-0.05c0.24-0.19,0.49-0.38,0.73-0.57c0.83-0.42,1.03-0.61,0.61-0.57c-0.18-0.04-0.4,0.01-0.59,0.01
			c-0.47,0.01-0.94,0.01-1.41,0.02c-1.56,0.01-3.13-0.02-4.69-0.07c-0.76-0.03-1.59-0.16-2.34-0.11c-0.4,0.03,0.02-0.04,0.05,0.03
			c-0.66-1.53,1.12,0.97,0.99,1.28c0.12-0.29,0.02-0.85,0.02-1.18c0.08-3.69,0.16-7.38,0.25-11.08c0.03-1.31-1.17-2.56-2.5-2.5
			C296.35,67.22,295.26,68.25,295.23,69.66L295.23,69.66z"/>
	</g>
</g>
<g>
	<g>
		<path class="st1" d="M311.94,66.96c1.71,4.75,1.39,9.96,3.55,14.59c0.55,1.18,1.31,2.2,2.52,2.76c1.37,0.63,2.83,0.33,4.25,0.06
			c2.75-0.52,5.49-1.15,8.2-1.87c2.54-0.67,5.15-1.35,7.6-2.31c1.47-0.57,2.41-1.83,2.17-3.45c-0.21-1.4-1.28-2.86-1.98-4.08
			c-1.27-2.23-2.63-4.41-4.07-6.53c-0.72-1.06-1.46-2.11-2.23-3.14c-0.79-1.07-1.54-2.34-2.63-3.13c-1.44-1.05-3.01-0.84-4.65-0.48
			c-1.62,0.36-3.23,0.72-4.85,1.08c-3.23,0.72-6.46,1.44-9.69,2.16c-3.14,0.7-1.81,5.52,1.33,4.82c2.91-0.65,5.81-1.3,8.72-1.95
			c1.45-0.32,2.91-0.65,4.36-0.97c0.28-0.06,1.94-0.26,2.03-0.46c-0.01,0.02-0.22-0.49-0.13-0.1c0.02,0.07,0.55,0.69,0.51,0.64
			c1.6,2.1,3.1,4.28,4.52,6.51c1.47,2.3,3.07,4.71,4.14,7.23c-0.11-0.42-0.23-0.84-0.34-1.26c0,0.13-0.01,0.25-0.01,0.38
			c0.11-0.42,0.23-0.84,0.34-1.26c-0.05,0.06-0.1,0.13-0.15,0.19c0.3-0.3,0.6-0.6,0.9-0.9c0.38-0.23-0.4,0.15-0.54,0.2
			c-0.38,0.13-0.76,0.25-1.14,0.37c-0.69,0.22-1.38,0.43-2.07,0.64c-1.38,0.41-2.77,0.8-4.17,1.16c-1.47,0.38-2.95,0.73-4.44,1.06
			c-0.7,0.15-1.41,0.3-2.12,0.44c-0.44,0.09-1.36,0.44-1.82,0.36c-0.2-0.04,0.25,0.18,0.12,0.06c-0.14-0.13-0.28-0.55-0.36-0.75
			c-0.22-0.51-0.39-1.04-0.55-1.57c-0.38-1.29-0.62-2.61-0.83-3.93c-0.43-2.66-0.74-5.34-1.66-7.9c-0.46-1.27-1.7-2.12-3.08-1.75
			C312.46,64.23,311.49,65.69,311.94,66.96L311.94,66.96z"/>
	</g>
</g>
<g>
	<g>
		<path class="st1" d="M349.57,61.39c-0.66,4.73-1.19,9.48-1.54,14.24c-0.09,1.2-0.23,2.42,0.35,3.53c0.65,1.22,1.86,1.82,3.19,1.96
			c2.09,0.21,4.36-0.14,6.44-0.39c2.34-0.29,4.66-0.67,6.95-1.2c1.1-0.25,2.19-0.54,3.27-0.85c0.99-0.28,2.08-0.54,2.95-1.1
			c2.34-1.52,1.77-4.17,0.98-6.37c-0.76-2.11-1.56-4.21-2.39-6.3c-0.94-2.35-1.63-5.18-4.42-5.87c-1.25-0.31-2.66-0.24-3.93-0.31
			c-1.31-0.07-2.61-0.15-3.92-0.22c-1.35-0.08-2.5,1.2-2.5,2.5c0,1.42,1.15,2.42,2.5,2.5c1.8,0.1,3.61,0.2,5.41,0.3
			c0.4,0.02,0.81,0.07,1.21,0.07c-0.23,0,0.06-0.02,0.03,0.02c0.05,0.01,0.09,0.02,0.14,0.03c-0.13-0.07-0.26-0.15-0.39-0.22
			c-0.12,0.01,0.05,0,0.08,0.19c0,0.01,0.12,0.25,0.12,0.26c0.18,0.4,0.33,0.81,0.5,1.22c0.68,1.68,1.33,3.36,1.96,5.06
			c0.3,0.82,0.6,1.64,0.9,2.46c0.11,0.32,0.24,0.64,0.34,0.97c0.01,0.02,0.1,0.5,0.14,0.54c-0.04-0.04-0.03-0.23-0.01-0.27
			c0.53-0.8,0.89-0.86,0.22-0.65c-0.42,0.13-0.84,0.26-1.26,0.38c-0.9,0.26-1.81,0.5-2.72,0.72c-1.77,0.42-3.55,0.77-5.35,1.03
			c-1.64,0.24-3.29,0.39-4.94,0.48c-0.44,0.02-0.88,0.05-1.31,0.06c-0.19,0.01-0.41-0.03-0.6,0c-0.4,0.08,0.01-0.05-0.01-0.01
			c0.16,0.2,0.32,0.41,0.48,0.61c0.38,0.74,0.54,0.85,0.48,0.33c0.03-0.14,0.02-0.33,0.03-0.47c0.03-0.52,0.07-1.04,0.11-1.56
			c0.31-4.12,0.75-8.24,1.32-12.33c0.19-1.34-0.32-2.68-1.75-3.08C351.48,59.32,349.76,60.04,349.57,61.39L349.57,61.39z"/>
	</g>
</g>
<g>
	<g>
		<path class="st1" d="M294.44,93.5c-0.43,2.13-0.48,4.2-0.15,6.35c0.27,1.72,0.77,3.69,1.8,5.11c1.41,1.94,3.5,2.06,5.7,2.01
			c2.06-0.04,4.12-0.08,6.18-0.12c1.07-0.02,2.16,0.01,3.13-0.48c1.1-0.55,1.78-1.59,1.99-2.78c0.36-2.04,0.5-4.15,0.73-6.21
			c0.24-2.07,0.66-4.24-0.99-5.88c-1.19-1.19-3-1.55-4.62-1.5c-2.2,0.07-4.43,0.47-6.6,0.83c-2.17,0.36-4.32,0.82-6.46,1.35
			c-1.27,0.32-2.16,1.81-1.75,3.08c0.42,1.31,1.72,2.09,3.08,1.75c1.5-0.38,3.02-0.72,4.54-1.01c0.74-0.14,1.48-0.27,2.22-0.39
			c0.69-0.11,1.52-0.24,2.01-0.3c1.3-0.16,2.56-0.27,3.86-0.28c0.33,0-0.36-0.16-0.08,0c0.06,0.04,0.21,0.05,0.28,0.07
			c0.41,0.08,0.02,0-0.08-0.06c0,0,0.27,0.18,0.31,0.18c-0.14,0.01-0.37-0.37-0.41-0.42c0.1,0.14,0.04,0.21,0.04,0.02
			c0-0.14,0.01-0.33-0.06-0.1c-0.06,0.2-0.03,0.49-0.05,0.71c-0.16,1.57-0.36,3.14-0.54,4.71c-0.09,0.76-0.17,1.52-0.26,2.28
			c-0.01,0.05-0.01,0.1-0.02,0.15c-0.02,0.22-0.02,0.2,0-0.04c-0.01,0.04-0.02,0.08-0.03,0.12c-0.08,0.27,0.01,0.18,0.28-0.27
			c-0.27,0.33,0.56-0.71,0.56-0.5c0.13-0.02,0.12-0.02-0.03-0.01c-0.14,0-0.29,0.01-0.43,0.01c-1.6,0.03-3.19,0.06-4.79,0.09
			c-0.77,0.02-1.55,0.03-2.32,0.05c-0.33,0.01-0.65,0.02-0.98,0.02c-0.16,0-0.32-0.01-0.48-0.02c-0.15-0.01-0.16-0.01-0.02,0
			c0.17,0.02,0.13,0-0.13-0.05c0.22,0.15,0.47,0.48,0.28,0.13c-0.08-0.14-0.15-0.27-0.21-0.42c0.15,0.31-0.06-0.16-0.1-0.27
			c-0.27-0.75-0.49-1.51-0.63-2.29c-0.1-0.56-0.08-0.39-0.11-0.86c-0.03-0.42-0.05-0.84-0.04-1.26c0-0.37,0.03-0.75,0.05-1.12
			c0.02-0.27,0.06-0.48,0.16-1c0.26-1.28-0.37-2.76-1.75-3.08C296.28,91.47,294.72,92.13,294.44,93.5L294.44,93.5z"/>
	</g>
</g>
<g>
	<g>
		<path class="st1" d="M316.39,105.46c4.45,1.06,9,0.97,13.52,0.42c1.19-0.14,2.37-0.31,3.56-0.48c1.07-0.16,2.24-0.22,3.26-0.59
			c2.43-0.86,2.95-3.19,3.01-5.49c0.06-2.23,0.31-4.56,0.16-6.78c-0.21-3.14-3.54-3.45-6.02-3.51c-4.5-0.11-9.02-0.01-13.53,0
			c-1.3,0-2.55,0.01-3.65,0.8c-0.99,0.71-1.49,1.84-1.68,3.02c-0.44,2.73-0.56,5.52-0.45,8.28c0.06,1.35,1.11,2.5,2.5,2.5
			c1.31,0,2.56-1.14,2.5-2.5c-0.09-2.27-0.04-4.56,0.25-6.82c0.02-0.19,0.05-0.37,0.09-0.55c0.06-0.3,0.26-0.43-0.02-0.22
			c-0.01,0.01-0.57,0.53-0.56,0.48c0,0.03,0.26,0.01,0.42,0.01c1.19,0,2.37,0,3.56,0c2.24,0,4.48,0,6.72,0c1.1,0,2.2-0.01,3.3,0
			c0.49,0,0.97,0.02,1.46,0.05c0.25,0.02,0.38,0.03,0.6,0.06c0.12,0.02,0.24,0.04,0.36,0.07c0.32,0.09,0.25,0.02-0.21-0.2
			c-0.21-0.37-0.43-0.74-0.64-1.1c0.08,0.26-0.01,0.98-0.02,1.38c-0.02,0.61-0.03,1.21-0.05,1.82c-0.03,1.21-0.05,2.42-0.09,3.63
			c-0.01,0.19-0.01,0.38-0.03,0.57c0.02-0.27-0.14,0.18-0.02,0.13c0.01-0.01,0.26-0.3,0.26-0.23c0.25-0.14,0.19-0.15-0.17-0.03
			c-0.11,0.02-0.22,0.04-0.33,0.05c-1.15,0.2-2.3,0.36-3.46,0.52c-4.38,0.61-8.92,0.93-13.26-0.1c-1.31-0.31-2.71,0.41-3.08,1.75
			C314.29,103.66,315.07,105.15,316.39,105.46L316.39,105.46z"/>
	</g>
</g>
<g>
	<g>
		<path class="st1" d="M349.72,92.18c-0.06,1.63-0.06,3.27,0.02,4.9c0.08,1.65,0.16,3.45,1.42,4.69c1.36,1.34,3.36,1.17,5.12,1.19
			c1.63,0.02,3.27,0.02,4.9,0.01c1.59-0.01,3.35,0.15,4.92-0.2c2.04-0.46,3.05-2.14,3.18-4.12c0.21-3.28-0.35-6.74-1.25-9.88
			c-0.23-0.8-0.9-1.57-1.75-1.75c-6.23-1.33-12.78-0.9-18.72,1.44c-1.26,0.49-2.13,1.67-1.75,3.08c0.33,1.2,1.81,2.24,3.08,1.75
			c5.12-2.02,10.68-2.59,16.06-1.44c-0.58-0.58-1.16-1.16-1.75-1.75c0.64,2.26,1.03,4.54,1.08,6.88c0.01,0.28-0.03,1.6,0,1.61
			c-0.08-0.02,0.72-0.68,0.74-0.7c0.18,0,0.19,0.01,0,0.01c-0.13,0.01-0.27,0.02-0.4,0.02c-1.27,0.04-2.54,0.04-3.81,0.05
			c-1.27,0.01-2.54,0.01-3.81,0c-0.61,0-1.21-0.01-1.82-0.02c-0.47-0.01-1.61-0.18-0.45,0.35c0.23,0.1,0.05,0.28,0.06-0.06
			c-0.01,0.46-0.03-0.51-0.03-0.46c-0.04-0.58-0.06-1.17-0.08-1.75c-0.04-1.28-0.03-2.57,0.02-3.85c0.05-1.35-1.19-2.5-2.5-2.5
			C350.82,89.68,349.77,90.83,349.72,92.18L349.72,92.18z"/>
	</g>
</g>
<g>
	<g>
		<path class="st1" d="M299.28,116.04c0.09,2.07,0.37,4.15,0.88,6.16c0.53,2.08,1.48,3.91,3.63,4.64c1.83,0.62,4.05,0.33,5.94,0.32
			c2.11,0,4.22-0.01,6.33-0.01c1.02,0,2.04,0,3.07,0c1.18,0,2.39,0.07,3.35-0.73c1.81-1.5,0.97-4.43,0.72-6.45
			c-0.26-2.11-0.55-4.23-0.94-6.32c-0.45-2.37-2.03-4.03-4.51-4.13c-1.11-0.05-2.26,0.22-3.36,0.37c-1.13,0.15-2.26,0.31-3.39,0.48
			c-2.39,0.35-4.77,0.73-7.15,1.13c-1.33,0.22-2.08,1.87-1.75,3.08c0.39,1.41,1.74,1.97,3.08,1.75c2.13-0.36,4.26-0.7,6.39-1.02
			c1.94-0.29,3.91-0.67,5.88-0.78c0.1,0,0.2,0,0.3,0c-0.03,0-0.06-0.01-0.09-0.01c0-0.02-0.38-0.32-0.39-0.33
			c0,0,0.13,0.57,0.18,0.8c0.2,1.06,0.37,2.13,0.52,3.2c0.14,0.97,0.27,1.95,0.38,2.93c0.11,1,0.38,2.14,0.24,3.15
			c0.11-0.42,0.23-0.84,0.34-1.26c-0.04,0.07-0.07,0.14-0.11,0.21c0.3-0.3,0.6-0.6,0.9-0.9c0.3-0.2,0.86-0.1,0.19-0.15
			c-0.25-0.02-0.51,0-0.77,0c-0.51,0-1.02,0-1.53,0c-1.09,0-2.17,0-3.26,0c-2.11,0-4.22,0.01-6.33,0.01c-0.51,0-1.02,0-1.53,0
			c-0.2,0-0.39,0-0.59-0.01c-0.03,0-0.45-0.02-0.21,0c-0.02,0-0.44-0.06-0.22,0c-0.12-0.03-0.26-0.24-0.17-0.11
			c0.14,0.2-0.05-0.17-0.05-0.19c0.03,0.21-0.02-0.14-0.04-0.19c-0.54-1.84-0.83-3.71-0.92-5.62c-0.06-1.35-1.11-2.5-2.5-2.5
			C300.48,113.54,299.22,114.69,299.28,116.04L299.28,116.04z"/>
	</g>
</g>
<g>
	<g>
		<path class="st1" d="M326.29,115.38c-0.31,2.14-0.71,4.3-0.91,6.46c-0.19,2.06,0.36,4.24,2.16,5.45c0.96,0.65,2.12,0.81,3.26,0.84
			c1.06,0.02,2.12,0.02,3.18,0.03c2.15,0.02,4.31,0.05,6.46,0.07c1.92,0.02,3.09-2.13,2.16-3.76c-0.37-0.65-0.72-1.3-1.04-1.98
			c-0.16-0.34-0.31-0.67-0.46-1.02c0.14,0.33,0.03,0.05-0.05-0.13c-0.07-0.17-0.14-0.35-0.2-0.52c-0.52-1.39-0.94-2.83-1.24-4.29
			c-0.13-0.64-0.18-1.32-0.41-1.94c-0.43-1.14-1.22-2.04-2.42-2.39c-0.84-0.24-1.78-0.19-2.64-0.1c-0.95,0.11-1.89,0.26-2.81,0.52
			c-1.26,0.36-2.17,1.78-1.75,3.08c0.41,1.28,1.73,2.13,3.08,1.75c0.33-0.1,0.67-0.18,1.01-0.25c0.15-0.03,0.3-0.05,0.45-0.09
			c0.38-0.09-0.37,0.03,0.02-0.01c0.35-0.03,0.69-0.06,1.04-0.07c0.05,0,0.41-0.04,0.44,0c-0.21,0-0.4-0.08-0.56-0.23
			c-0.17-0.06-0.3-0.17-0.4-0.31c-0.07-0.09-0.22-0.51-0.19-0.32c0.02,0.14,0.07,0.29,0.1,0.43c0.05,0.28,0.09,0.55,0.15,0.83
			c0.12,0.66,0.27,1.31,0.44,1.96c0.7,2.65,1.77,5.22,3.13,7.6c0.72-1.25,1.44-2.51,2.16-3.76c-1.86-0.02-3.73-0.04-5.59-0.06
			c-0.95-0.01-1.91-0.02-2.86-0.03c-0.4,0-0.79,0-1.19-0.01c-0.14,0-0.45,0.04-0.59-0.03c0.31,0.05,0.37,0.06,0.19,0.02
			c-0.09-0.02-0.19-0.04-0.28-0.07c0.08,0.04,0.16,0.07,0.24,0.11c-0.21-0.13-0.22-0.13-0.04,0.01c0.16,0.14,0.17,0.13,0.01-0.01
			c-0.14-0.16-0.14-0.15,0,0.01c0.13,0.17,0.14,0.17,0.03,0c0.04,0.1,0.08,0.21,0.12,0.31c0,0-0.13-0.44-0.14-0.46
			c-0.15-0.5,0.01,0.55,0,0.01c0-0.14-0.01-0.28-0.01-0.43c0-0.32,0.03-0.63,0.05-0.94c0.05-0.61-0.11,0.73,0.01-0.08
			c0.04-0.24,0.07-0.49,0.11-0.73c0.06-0.41,0.12-0.81,0.18-1.22c0.14-0.98,0.28-1.95,0.42-2.93c0.1-0.69,0.12-1.3-0.25-1.93
			c-0.3-0.52-0.9-1.01-1.49-1.15C328.19,113.36,326.49,113.99,326.29,115.38L326.29,115.38z"/>
	</g>
</g>
<g>
	<g>
		<path class="st1" d="M345.81,112.4c-0.05,2.28-0.1,4.56-0.16,6.84c-0.02,1.09-0.05,2.17-0.07,3.26c-0.03,1.17-0.19,2.42,0.16,3.55
			c0.76,2.5,3.46,2.76,5.66,2.81c2.22,0.06,4.44,0,6.66-0.16c2.27-0.16,4.8-0.21,6.6-1.8c1.6-1.42,1.98-3.61,1.75-5.64
			c-0.24-2.11-0.68-4.2-1.05-6.29c-0.37-2.12-0.76-4.37-2.85-5.49c-1.23-0.65-2.63-0.59-3.98-0.59c-1.18,0-2.36,0-3.55,0.01
			c-2.58,0-5.16,0.01-7.74,0.01c-1.31,0-2.56,1.15-2.5,2.5c0.06,1.35,1.1,2.5,2.5,2.5c3.71-0.01,7.41-0.01,11.12-0.02
			c0.46,0,0.92-0.01,1.38,0c0.17,0,0.35,0,0.51,0.02c-0.24-0.03-0.14-0.09,0.08,0.05c-0.05-0.03-0.27-0.13-0.3-0.15
			c-0.18-0.08-0.05-0.37,0,0.04c-0.05-0.39-0.02-0.07,0.01,0.05c0.06,0.23,0.13,0.46,0.17,0.69c0.36,1.7,0.6,3.43,0.9,5.14
			c0.07,0.42,0.15,0.83,0.22,1.25c0.03,0.16,0.05,0.31,0.08,0.47c-0.07-0.44,0-0.03,0,0.05c0.03,0.36,0.05,0.72,0.04,1.08
			c0,0.07-0.07,0.55-0.01,0.25c0.06-0.32-0.08,0.27-0.1,0.33c0.19-0.61-0.07,0.29,0.04-0.06c0.08-0.27-0.21,0.19-0.03,0.06
			c0.2-0.15-0.22,0.13-0.27,0.15c-0.36,0.18,0.29-0.07-0.11,0.02c-0.17,0.04-0.33,0.09-0.5,0.12c-0.1,0.02-0.64,0.1-0.23,0.05
			c-0.46,0.06-0.93,0.09-1.39,0.13c-1.89,0.16-3.79,0.24-5.68,0.24c-0.87,0-1.73-0.01-2.6-0.05c-0.18-0.01-0.35-0.02-0.53-0.02
			c-0.48-0.02-0.06-0.02,0.03,0.01c0.03,0.01-0.4-0.09-0.4-0.11c0.02-0.27,1.25,1.11,0.81,0.79c0.08,0.06,0,0.52,0.05-0.04
			c0.03-0.32,0.02-0.66,0.02-0.98c0.01-0.49,0.02-0.98,0.03-1.47c0.02-1.03,0.05-2.06,0.07-3.09c0.05-2.17,0.1-4.34,0.15-6.51
			c0.03-1.31-1.17-2.56-2.5-2.5C346.93,109.96,345.84,110.99,345.81,112.4L345.81,112.4z"/>
	</g>
</g>
<g>
	<g>
		<path class="st1" d="M37.68,100.8c-0.17,7.7,0.17,15.41,1.07,23.06c0.44,3.73,0.98,7.44,1.66,11.14c0.64,3.5,1.22,7.16,2.36,10.54
			c1.09,3.2,3.14,5.85,6.67,6.39c3.49,0.53,7.3-0.13,10.79-0.53c7.72-0.88,15.35-2.32,23.01-3.54c15.18-2.42,30.44-2.75,45.79-2.62
			c15.72,0.13,31.4,0.12,47.1-0.58c17.57-0.78,35.11-2.08,52.65-3.39c1.06-0.08,2.16-0.72,2.41-1.84c1.65-7.34,2.6-14.86,2.76-22.39
			c0.08-3.65-0.03-7.31-0.32-10.95c-0.14-1.74-0.32-3.48-0.55-5.21c-0.26-2-0.41-4.24-2.64-5c-1.68-0.57-3.77-0.38-5.53-0.45
			c-1.96-0.07-3.91-0.13-5.87-0.17c-3.75-0.08-7.5-0.1-11.25-0.06c-7.5,0.07-15,0.33-22.49,0.74c-30.35,1.62-60.56,5.39-90.94,6.59
			c-8.48,0.34-16.97,0.47-25.46,0.3c-8.69-0.17-17.39-0.62-26.07,0.1c-1.35,0.11-2.5,1.07-2.5,2.5c0,1.27,1.15,2.61,2.5,2.5
			c12.24-1.01,24.58,0.06,36.84-0.04c12.08-0.1,24.16-0.73,36.21-1.58c24.29-1.72,48.51-4.38,72.84-5.55
			c6.84-0.33,13.69-0.54,20.53-0.57c3.42-0.02,6.85,0.01,10.27,0.08c1.63,0.04,3.26,0.08,4.89,0.14c0.82,0.03,1.63,0.06,2.45,0.1
			c0.43,0.02,1.7-0.03,1.9,0.13c-0.3-0.3-0.6-0.6-0.9-0.9c0.25,0.38,0.21,1.14,0.27,1.61c0.11,0.87,0.21,1.74,0.29,2.6
			c0.17,1.66,0.29,3.32,0.38,4.99c0.17,3.25,0.2,6.51,0.08,9.77c-0.24,6.53-1.09,13.01-2.53,19.39c0.8-0.61,1.61-1.22,2.41-1.84
			c-30.59,2.28-61.16,4.34-91.86,4.05c-15.1-0.15-30.26-0.43-45.28,1.35c-7.4,0.88-14.73,2.24-22.08,3.42
			c-3.58,0.57-7.16,1.1-10.77,1.47c-1.75,0.18-3.51,0.33-5.27,0.44c-1.35,0.08-3.18,0.42-4.39-0.37c-1-0.65-1.43-2.01-1.75-3.11
			c-0.54-1.84-0.92-3.73-1.31-5.6c-0.85-4.02-1.55-8.07-2.08-12.15c-1.08-8.28-1.5-16.63-1.31-24.97
			C42.75,97.58,37.75,97.59,37.68,100.8L37.68,100.8z"/>
	</g>
</g>
<g>
	<g>
		<path class="st1" d="M85.17,106.12c-0.72,5.94,0.45,11.49,1.98,17.2c1.53,5.69,2.43,11.48,2.63,17.37c0.11,3.21,5.11,3.22,5,0
			c-0.2-6-1.05-11.99-2.57-17.8c-0.71-2.71-1.54-5.4-1.98-8.17c-0.45-2.84-0.4-5.76-0.06-8.6c0.16-1.34-1.27-2.5-2.5-2.5
			C86.19,103.62,85.34,104.77,85.17,106.12L85.17,106.12z"/>
	</g>
</g>
<g>
	<g>
		<path class="st1" d="M62.8,108.45c3,11.79,3.78,24.04,5.01,36.11c0.14,1.34,1.05,2.5,2.5,2.5c1.25,0,2.64-1.15,2.5-2.5
			c-1.27-12.5-2.08-25.22-5.19-37.44C66.83,104.01,62.01,105.33,62.8,108.45L62.8,108.45z"/>
	</g>
</g>
<g>
	<g>
		<path class="st1" d="M107.17,103.78c0.37,11.15,0.12,22.32-0.74,33.44c-0.1,1.35,1.22,2.5,2.5,2.5c1.44,0,2.4-1.15,2.5-2.5
			c0.86-11.13,1.11-22.29,0.74-33.44C112.06,100.57,107.06,100.56,107.17,103.78L107.17,103.78z"/>
	</g>
</g>
<g>
	<g>
		<path class="st1" d="M126.9,103.85c-0.48-0.15-0.97-0.3-1.45-0.44c0.07,0.02,0.09,0.07,0.07,0.17c-0.02,0.04,0.21,1.02,0.19,0.95
			c0.12,0.73,0.24,1.46,0.35,2.18c0.24,1.54,0.47,3.08,0.68,4.62c0.43,3.11,0.78,6.22,1.09,9.34c0.62,6.28,1.01,12.57,1.18,18.88
			c0.09,3.21,5.09,3.22,5,0c-0.2-7.45-0.71-14.89-1.54-22.3c-0.42-3.72-0.91-7.44-1.48-11.14c-0.25-1.63-0.33-3.44-1.08-4.93
			c-0.84-1.67-2.49-2.62-4.34-2.15C122.46,99.82,123.78,104.64,126.9,103.85L126.9,103.85z"/>
	</g>
</g>
<g>
	<g>
		<path class="st1" d="M145.23,105.14c2.71,13.28,5.82,26.57,7.41,40.04c0.16,1.34,1.04,2.5,2.5,2.5c1.23,0,2.66-1.15,2.5-2.5
			c-1.65-13.93-4.78-27.64-7.59-41.37c-0.27-1.32-1.84-2.09-3.08-1.75C145.6,102.44,144.96,103.81,145.23,105.14L145.23,105.14z"/>
	</g>
</g>
<g>
	<g>
		<path class="st1" d="M176.63,100.23c0.09-0.02,0.18-0.04,0.27-0.06c-0.44,0-0.89,0-1.33,0c-0.57-0.62-0.75-0.76-0.52-0.4
			c0.11,0.12,0.13,0.16,0.06,0.13c-0.02,0.33,0.22,0.8,0.3,1.12c0.19,0.75,0.36,1.5,0.52,2.25c0.32,1.51,0.58,3.04,0.77,4.58
			c0.41,3.22,0.6,6.47,0.76,9.72c0.32,6.58,0.51,13.17,1.63,19.67c0.23,1.33,1.87,2.08,3.08,1.75c1.41-0.39,1.98-1.74,1.75-3.08
			c-1.24-7.21-1.18-14.55-1.65-21.83c-0.24-3.69-0.61-7.37-1.29-11.01c-0.58-3.08-1.28-8.59-5.68-7.68
			c-1.32,0.27-2.09,1.83-1.75,3.08C173.93,99.85,175.31,100.5,176.63,100.23L176.63,100.23z"/>
	</g>
</g>
<g>
	<g>
		<path class="st1" d="M202.41,96.04c-0.73,3.44-0.29,6.89-0.34,10.37c-0.05,3.55-0.44,7.08-0.88,10.59
			c-0.87,6.92-1.93,13.89-1.06,20.87c0.17,1.34,1.03,2.5,2.5,2.5c1.22,0,2.67-1.15,2.5-2.5c-0.85-6.82,0.14-13.63,1-20.4
			c0.43-3.36,0.82-6.73,0.92-10.12c0.1-3.29-0.51-6.74,0.18-9.98C207.9,94.23,203.08,92.89,202.41,96.04L202.41,96.04z"/>
	</g>
</g>
<g>
	<g>
		<path class="st1" d="M229.29,109.44c-24.09,1.41-48.19,2.83-72.28,4.24c-24.02,1.41-48.04,2.88-72.08,4.06
			c-13.6,0.67-27.2,1.23-40.8,1.62c-3.21,0.09-3.22,5.09,0,5c24.06-0.69,48.1-1.93,72.13-3.3c24.05-1.37,48.1-2.81,72.15-4.22
			c13.63-0.8,27.25-1.6,40.88-2.4C232.49,114.25,232.51,109.25,229.29,109.44L229.29,109.44z"/>
	</g>
</g>
<g>
	<g>
		<path class="st1" d="M46.18,141.04c25.8-4.01,52.02-2.89,78.03-3.16c6.51-0.07,13.03-0.22,19.54-0.55
			c6.3-0.32,12.88-0.53,18.88-2.66c2.87-1.02,5.57-2.44,8.38-3.6c2.8-1.16,5.74-1.98,8.7-2.57c5.92-1.18,11.99-1.35,18-1.44
			c14.85-0.21,29.71,0.07,44.54,0.8c3.22,0.16,3.21-4.84,0-5c-13.37-0.66-26.76-0.94-40.15-0.85c-6.19,0.04-12.41,0.08-18.56,0.85
			c-3.08,0.39-6.14,0.92-9.13,1.76c-3,0.84-5.84,2.06-8.67,3.35c-2.81,1.28-5.62,2.41-8.65,3.05c-2.95,0.62-5.96,0.86-8.97,1.06
			c-6.58,0.43-13.17,0.64-19.76,0.75c-13.04,0.21-26.08,0.01-39.12,0.18c-14.85,0.19-29.7,0.93-44.39,3.22
			c-1.34,0.21-2.07,1.88-1.75,3.08C43.5,140.72,44.84,141.25,46.18,141.04L46.18,141.04z"/>
	</g>
</g>
<rect x="249.32" y="55.23" class="st2" width="33.12" height="24.18"/>
<text transform="matrix(1 0 0 1 249.3186 60.9087)" class="st3 st4">Lowtech</text>
<text transform="matrix(1 0 0 1 293.2383 36.8672)" class="st3 st4">-50%</text>
</svg>
