<?xml version="1.0" encoding="utf-8"?>
<!-- Generator: Adobe Illustrator 25.4.1, SVG Export Plug-In . SVG Version: 6.00 Build 0)  -->
<svg version="1.1" id="Layer_1" xmlns="http://www.w3.org/2000/svg" xmlns:xlink="http://www.w3.org/1999/xlink" x="0px" y="0px"
	 viewBox="0 0 400 400" style="enable-background:new 0 0 400 400;" xml:space="preserve">
<style type="text/css">
	.st0{fill:#231F20;}
	.st1{fill:none;}
	.st2{font-family:'FranklinGothic-Demi';}
	.st3{font-size:19px;}
</style>
<g>
	<g>
		<path class="st0" d="M174.6,281.16c-6.91,15.71-14.37,31.17-22.15,46.48c-7.76,15.26-15.86,30.33-23.94,45.43
			c-4.42,8.26-8.67,16.65-11.6,25.57c-1.01,3.06,3.82,4.38,4.82,1.33c2.56-7.77,6.18-15.11,10-22.32
			c3.92-7.41,7.93-14.77,11.86-22.17c8.01-15.09,15.84-30.28,23.27-45.67c4.17-8.64,8.2-17.34,12.06-26.12
			c0.54-1.24,0.36-2.68-0.9-3.42C176.96,279.65,175.14,279.92,174.6,281.16L174.6,281.16z"/>
	</g>
</g>
<g>
	<g>
		<path class="st0" d="M174.57,284.18c10.01,14.53,16.83,30.94,26.63,45.6c4.94,7.39,10.84,14.06,15.78,21.44
			c2.54,3.79,4.63,7.83,6.85,11.8c2.24,4.01,4.82,7.78,7.54,11.48c6.45,8.77,12.96,17.49,19.44,26.23c0.8,1.08,2.17,1.63,3.42,0.9
			c1.07-0.62,1.71-2.33,0.9-3.42c-5.76-7.77-11.52-15.54-17.28-23.32c-2.8-3.78-5.64-7.54-8.07-11.57
			c-2.32-3.86-4.29-7.91-6.64-11.75c-4.64-7.59-10.57-14.28-15.71-21.53c-5.09-7.19-9.35-14.92-13.53-22.66
			c-4.72-8.74-9.37-17.54-15.01-25.73c-0.76-1.11-2.19-1.61-3.42-0.9C174.36,281.4,173.8,283.06,174.57,284.18L174.57,284.18z"/>
	</g>
</g>
<g>
	<g>
		<path class="st0" d="M176.78,284.95c3.22,0,3.22-5,0-5C173.57,279.95,173.56,284.95,176.78,284.95L176.78,284.95z"/>
	</g>
</g>
<g>
	<g>
		<path class="st0" d="M176.78,284.95c3.22,0,3.22-5,0-5C173.57,279.95,173.56,284.95,176.78,284.95L176.78,284.95z"/>
	</g>
</g>
<g>
	<g>
		<path class="st0" d="M176.12,284.86c0.02,0.01,0.04,0.01,0.06,0.02c0.33,0.1,0.66,0.12,1,0.04c0.33-0.02,0.64-0.11,0.93-0.3
			c0.29-0.16,0.53-0.37,0.7-0.64c0.22-0.24,0.37-0.52,0.45-0.85c0.03-0.22,0.06-0.44,0.09-0.66c0-0.45-0.12-0.87-0.34-1.26
			c-0.13-0.17-0.26-0.34-0.39-0.51c-0.31-0.31-0.68-0.52-1.1-0.64c-0.02-0.01-0.04-0.01-0.06-0.02c-0.33-0.1-0.66-0.12-1-0.04
			c-0.33,0.02-0.64,0.11-0.93,0.3c-0.29,0.16-0.53,0.37-0.7,0.64c-0.22,0.24-0.37,0.52-0.45,0.85c-0.03,0.22-0.06,0.44-0.09,0.66
			c0,0.45,0.12,0.87,0.34,1.26c0.13,0.17,0.26,0.34,0.39,0.51C175.33,284.53,175.7,284.74,176.12,284.86L176.12,284.86z"/>
	</g>
</g>
<g>
	<g>
		<path class="st0" d="M179.81,282.75c0-10.31,0-20.62,0-30.93c0-4.9-0.2-9.87,0.48-14.74c0.33-2.37,0.69-4.71,0.55-7.12
			c-0.15-2.65-0.66-5.27-1.17-7.87c-0.26-1.33-1.84-2.08-3.08-1.75c-1.38,0.38-2.01,1.75-1.75,3.08c0.49,2.48,0.99,4.97,1.03,7.5
			c0.04,2.3-0.41,4.55-0.68,6.82c-0.58,4.82-0.39,9.72-0.39,14.56c0,10.14,0,20.28,0,30.43
			C174.81,285.97,179.81,285.98,179.81,282.75L179.81,282.75z"/>
	</g>
</g>
<g>
	<g>
		<path class="st0" d="M175.11,220.77c-7.77,2.76-15.55,5.52-23.31,8.29c-7.51,2.68-15.02,5.45-22.17,9.01
			c-12.05,6-22.96,14.4-31.93,24.43c-5.06,5.67-9.54,11.86-13.3,18.46c-1.6,2.8,2.72,5.32,4.32,2.52
			c6.43-11.29,14.98-21.25,25.1-29.39c5.01-4.03,10.45-7.57,16.14-10.57c6.71-3.55,13.8-6.27,20.93-8.84
			c8.51-3.06,17.03-6.06,25.55-9.09c1.27-0.45,2.12-1.71,1.75-3.08C177.85,221.29,176.39,220.32,175.11,220.77L175.11,220.77z"/>
	</g>
</g>
<g>
	<g>
		<path class="st0" d="M178.5,225.07c9.99,2.17,19.95,4.46,29.88,6.89c8.79,2.15,17.63,4.3,26.12,7.48
			c7.9,2.96,15.53,6.98,21.8,12.68c6,5.46,10.69,12.15,14.18,19.45c3.93,8.22,6.3,17.24,7.28,26.28c0.15,1.34,1.04,2.5,2.5,2.5
			c1.24,0,2.65-1.15,2.5-2.5c-1.86-17.04-8.11-34.02-20.12-46.54c-12.78-13.32-30.8-18.66-48.2-23.01
			c-11.49-2.87-23.04-5.55-34.61-8.06C176.69,219.57,175.35,224.39,178.5,225.07L178.5,225.07z"/>
	</g>
</g>
<g>
	<g>
		<path class="st0" d="M178.76,222.68c1.05-7.25,1.72-14.53,1.97-21.85c0.11-3.22-4.89-3.21-5,0c-0.23,6.86-0.81,13.72-1.79,20.52
			c-0.19,1.33,0.33,2.69,1.75,3.08C176.86,224.75,178.57,224.03,178.76,222.68L178.76,222.68z"/>
	</g>
</g>
<g>
	<g>
		<path class="st0" d="M176.59,202.43c6.7,0.36,13.15-1.71,19.12-4.61c2.92-1.41,5.72-3.04,8.5-4.71c2.77-1.67,5.63-3.31,8.06-5.47
			c4.93-4.37,6.24-10.89,7-17.13c0.88-7.25,0.94-14.58,0.94-21.87c0-6.04-0.6-13.03-5.57-17.19c-1.03-0.87-2.52-1.01-3.54,0
			c-0.89,0.89-1.04,2.66,0,3.54c3.66,3.07,4.03,8.11,4.09,12.57c0.09,6.58-0.01,13.22-0.6,19.78c-0.46,5.21-0.96,11.57-4.68,15.62
			c-1.9,2.07-4.36,3.48-6.74,4.94c-2.57,1.57-5.16,3.12-7.83,4.53c-5.82,3.06-12.09,5.38-18.76,5.02
			C173.37,197.26,173.38,202.26,176.59,202.43L176.59,202.43z"/>
	</g>
</g>
<g>
	<g>
		<path class="st0" d="M177.07,196.75c-2.43,0.22-4.94,0.49-7.37,0.16c-2.23-0.31-4.19-1.26-6.02-2.52
			c-1.93-1.33-3.7-2.91-5.48-4.43c-1.77-1.51-3.51-3.06-5.13-4.73c-6.7-6.92-9.84-16.75-10.08-26.27c-0.23-8.91,2.72-17.94,9.7-23.8
			c3.55-2.98,8.04-4.41,12.41-5.68c4.94-1.44,9.99-2.62,15.12-3.08c10.2-0.92,21.16,0.92,29,7.97c2.39,2.15,5.93-1.38,3.54-3.54
			c-7.76-6.98-18.23-9.87-28.52-9.66c-5.75,0.12-11.47,1.11-17.03,2.54c-5.2,1.34-10.71,2.83-15.24,5.81
			c-8.51,5.58-13.09,15.3-13.86,25.25c-0.83,10.67,2.17,22.61,8.86,31.05c3.59,4.53,8.25,8.39,12.83,11.88
			c2.36,1.8,4.99,3.31,7.93,3.9c3.11,0.62,6.23,0.42,9.36,0.14c1.34-0.12,2.5-1.06,2.5-2.5
			C179.57,197.99,178.42,196.63,177.07,196.75L177.07,196.75z"/>
	</g>
</g>
<g>
	<g>
		<path class="st0" d="M161.93,152.05c3.22,0,3.22-5,0-5C158.71,147.05,158.7,152.05,161.93,152.05L161.93,152.05z"/>
	</g>
</g>
<g>
	<g>
		<path class="st0" d="M191.74,150.28c3.22,0,3.22-5,0-5C188.52,145.28,188.51,150.28,191.74,150.28L191.74,150.28z"/>
	</g>
</g>
<g>
	<g>
		<path class="st0" d="M149.06,163.23c3.77,7.66,12.45,10.29,20.31,11.15c8.4,0.92,17.56,1.63,25.52-1.74
			c4.04-1.71,7.56-4.43,9.91-8.17c1.72-2.73-2.61-5.25-4.32-2.52c-3.55,5.65-10.48,7.74-16.8,8.07c-4,0.21-8.03-0.09-12.02-0.42
			c-3.67-0.31-7.45-0.78-10.87-2.23c-3.17-1.35-5.89-3.55-7.42-6.66c-0.6-1.21-2.31-1.54-3.42-0.9
			C148.72,160.54,148.46,162.02,149.06,163.23L149.06,163.23z"/>
	</g>
</g>
<g>
	<g>
		<path class="st0" d="M223.94,77.15c2.32,12.19,0.69,25.11-4.6,36.35c-1.23,2.62,1.7,4.85,3.93,3.03c2.88-2.36,6.25-4.08,9.57-5.74
			c3.76-1.88,7.54-3.73,11.31-5.6c7.3-3.61,14.57-7.39,22.17-10.36c4.24-1.66,8.58-3.06,13.03-4.06c3.14-0.7,1.81-5.53-1.33-4.82
			c-8.22,1.84-16.03,5.09-23.63,8.68c-7.75,3.66-15.4,7.55-23.09,11.36c-4.07,2.02-8.04,4.12-11.57,7.01
			c1.31,1.01,2.62,2.02,3.93,3.03c5.9-12.53,7.69-26.59,5.1-40.2c-0.25-1.33-1.85-2.08-3.08-1.75
			C224.29,74.46,223.69,75.82,223.94,77.15L223.94,77.15z"/>
	</g>
</g>
<g>
	<g>
		<path class="st0" d="M227.6,75.29c-6.26,0.73-12.95,1.5-19.04-0.61c-4.97-1.73-8.5-5.82-10.28-10.68
			c-1.89-5.15-2.33-10.69-2.42-16.13c-0.09-5.12-0.55-11.33,2.14-15.92c1.42-2.42,3.78-3.68,6.42-4.41
			c3.39-0.93,6.94-1.38,10.4-1.96c7.52-1.26,15.07-2.39,22.64-3.35c15.25-1.94,30.58-3.26,45.94-3.83
			c15.44-0.57,30.97-0.48,46.39,0.69c7.4,0.56,14.79,1.51,21.98,3.39c3.29,0.86,6.54,1.91,9.43,3.73c2.85,1.8,5.22,4.28,7.56,6.68
			c8.77,9,17.33,19.25,20.42,31.71c1.4,5.67,1.91,12.21-2.3,16.84c-3.5,3.85-8.63,5.79-13.57,7.01c-6.83,1.69-13.98,2.23-20.99,2.61
			c-7.74,0.42-15.49,0.44-23.24,0.48c-7.78,0.04-15.56,0.08-23.34,0.13c-3.72,0.02-7.43,0.06-11.15,0.06
			c-2.82,0-5.67-0.07-8.43-0.73c-2.48-0.6-4.65-1.66-6.33-3.62c-0.88-1.02-2.63-0.9-3.54,0c-1.02,1.02-0.88,2.51,0,3.54
			c4.23,4.92,11.1,5.73,17.2,5.81c8.05,0.1,16.11-0.07,24.16-0.12c16.38-0.09,32.9,0.34,49.17-1.92
			c11.43-1.59,26.2-5.83,28.12-19.24c1.03-7.16-1.2-14.7-4.17-21.16c-2.9-6.31-7-12-11.48-17.28c-2.15-2.54-4.4-4.98-6.72-7.36
			c-2.54-2.61-5.11-5.22-8.14-7.28c-3.15-2.15-6.82-3.47-10.47-4.48c-3.82-1.05-7.72-1.82-11.63-2.41
			c-7.99-1.21-16.06-1.71-24.13-2.04c-8.16-0.33-16.34-0.43-24.51-0.31c-16.19,0.24-32.35,1.35-48.44,3.16
			c-8.19,0.92-16.36,2.03-24.5,3.29c-4.04,0.63-8.07,1.3-12.1,2c-3.42,0.6-6.95,1.16-10.01,2.91c-5.82,3.32-7.39,9.99-7.71,16.21
			c-0.31,6.04-0.15,12.25,0.87,18.22c0.98,5.74,3.14,11.53,7.38,15.67c4.97,4.86,11.83,6.44,18.59,6.43
			c3.29-0.01,6.56-0.35,9.83-0.73c1.34-0.16,2.5-1.04,2.5-2.5C230.1,76.56,228.95,75.13,227.6,75.29L227.6,75.29z"/>
	</g>
</g>
<rect x="200.39" y="41.62" class="st1" width="177.7" height="19.99"/>
<text transform="matrix(1 0 0 1 200.3909 54.2957)" class="st2 st3">We do a little trolling</text>
</svg>
